<svg viewBox="0 0 32 32" xmlns="http://www.w3.org/2000/svg"><g data-name="Layer 2"><path d="M31 18A11.73 11.73 0 0 0 19.18 7.59H4L7.25 3A1 1 0 0 0 7 1.59a1 1 0 0 0-1.39.24L1.15 8.08a.87.87 0 0 0 0 1l4.47 6.26a1 1 0 0 0 1.63-1.14L4 9.59h15.18A9.73 9.73 0 0 1 29 18.44a9.51 9.51 0 0 1-9.48 10.15H2a1 1 0 1 0 0 2h17.5A11.51 11.51 0 0 0 31 18Z" fill="#007aff" class="fill-000000"></path><path d="M5.6 15.77 1.13 9.51a.9.9 0 0 1 0-1L5.6 2.23A1 1 0 0 1 7 2a1 1 0 0 1 .23 1.4l-4 5.6 4 5.6A1 1 0 0 1 7 16a1 1 0 0 1-1.4-.23Z" fill="#007aff" class="fill-000000"></path><path d="M19.16 8H2a1 1 0 0 0-1 1 1 1 0 0 0 1 1h17.16A9.73 9.73 0 0 1 29 18.85 9.51 9.51 0 0 1 19.5 29H2a1 1 0 0 0-1 1 1 1 0 0 0 1 1h17.5A11.51 11.51 0 0 0 31 18.39 11.72 11.72 0 0 0 19.16 8Z" fill="#007aff" class="fill-000000"></path></g></svg>